<svg xmlns="http://www.w3.org/2000/svg" viewBox="0 0 700 300" width="100%"><rect width="700" height="300" rx="16" fill="#F2F2F4"/><line x1="80" y1="40" x2="300" y2="40" stroke="#141416" stroke-width="9" stroke-linecap="round"/><line x1="148.0" y1="103.0" x2="111.5" y2="77.5" stroke="#E02020" stroke-width="20" stroke-linecap="round"/><line x1="111.5" y1="77.5" x2="135.0" y2="40.0" stroke="#141416" stroke-width="16" stroke-linecap="round"/><line x1="232.0" y1="103.0" x2="268.5" y2="77.5" stroke="#E02020" stroke-width="20" stroke-linecap="round"/><line x1="268.5" y1="77.5" x2="245.0" y2="40.0" stroke="#141416" stroke-width="16" stroke-linecap="round"/><rect x="146" y="97.0" width="88" height="110" rx="20" fill="#141416"/><circle cx="190" cy="67.0" r="20" fill="#141416"/><line x1="110" y1="81.0" x2="270" y2="81.0" stroke="#E02020" stroke-width="2" stroke-dasharray="5 5"/><text x="190.0" y="250.0" font-family="Montserrat" font-size="17" font-weight="800" fill="#141416" text-anchor="middle">Humérus long + mobile</text><text x="190.0" y="274.0" font-family="Montserrat" font-size="14" font-weight="700" fill="#1F8A4C" text-anchor="middle">menton au-dessus : facile</text><line x1="400" y1="40" x2="620" y2="40" stroke="#141416" stroke-width="9" stroke-linecap="round"/><line x1="468.0" y1="134.2" x2="431.5" y2="93.1" stroke="#E02020" stroke-width="20" stroke-linecap="round"/><line x1="431.5" y1="93.1" x2="455.0" y2="40.0" stroke="#141416" stroke-width="16" stroke-linecap="round"/><line x1="552.0" y1="134.2" x2="588.5" y2="93.1" stroke="#E02020" stroke-width="20" stroke-linecap="round"/><line x1="588.5" y1="93.1" x2="565.0" y2="40.0" stroke="#141416" stroke-width="16" stroke-linecap="round"/><rect x="466" y="128.25" width="88" height="110" rx="20" fill="#141416"/><circle cx="510" cy="98.25" r="20" fill="#141416"/><line x1="430" y1="112.25" x2="590" y2="112.25" stroke="#E02020" stroke-width="2" stroke-dasharray="5 5"/><text x="510.0" y="250.0" font-family="Montserrat" font-size="17" font-weight="800" fill="#141416" text-anchor="middle">Humérus court + raide</text><text x="510.0" y="274.0" font-family="Montserrat" font-size="14" font-weight="700" fill="#E02020" text-anchor="middle">menton sous la barre : normal</text></svg>