<svg xmlns="http://www.w3.org/2000/svg" viewBox="0 0 700 380" width="100%"><rect width="700" height="380" rx="16" fill="#F2F2F4"/><line x1="110" y1="304" x2="260" y2="304" stroke="#B8B8C0" stroke-width="2"/><line x1="180" y1="304" x2="180" y2="-3.4759058236612645" stroke="#E02020" stroke-width="2" stroke-dasharray="6 6" opacity=".6"/><line x1="156.0" y1="300.0" x2="214.0" y2="300.0" stroke="#141416" stroke-width="14" stroke-linecap="round"/><line x1="170.0" y1="290.0" x2="230.0" y2="186.1" stroke="#141416" stroke-width="22" stroke-linecap="round"/><line x1="230.0" y1="186.1" x2="125.0" y2="186.1" stroke="#E02020" stroke-width="30" stroke-linecap="round"/><line x1="125.0" y1="186.1" x2="180.0" y2="46.5" stroke="#141416" stroke-width="40" stroke-linecap="round"/><circle cx="181.8" cy="16.5" r="19" fill="#141416"/><circle cx="180.0" cy="50.5" r="13" fill="#fff" stroke="#141416" stroke-width="5"/><line x1="125.0" y1="186.1" x2="125.0" y2="91.1" stroke="#B8B8C0" stroke-width="2" stroke-dasharray="4 4"/><path d="M125.0,124.1 A62,62 0 0 1 147.7,128.4" fill="none" stroke="#E02020" stroke-width="3"/><text x="97.0" y="116.1" font-family="Montserrat" font-size="20" font-weight="800" fill="#E02020" text-anchor="middle">22°</text><text x="180.0" y="336.0" font-family="Montserrat" font-size="17" font-weight="800" fill="#141416" text-anchor="middle">Fémur court</text><line x1="460" y1="304" x2="610" y2="304" stroke="#B8B8C0" stroke-width="2"/><line x1="530" y1="304" x2="530" y2="34.09656127401166" stroke="#E02020" stroke-width="2" stroke-dasharray="6 6" opacity=".6"/><line x1="506.0" y1="300.0" x2="564.0" y2="300.0" stroke="#141416" stroke-width="14" stroke-linecap="round"/><line x1="520.0" y1="290.0" x2="580.0" y2="186.1" stroke="#141416" stroke-width="22" stroke-linecap="round"/><line x1="580.0" y1="186.1" x2="420.0" y2="186.1" stroke="#E02020" stroke-width="30" stroke-linecap="round"/><line x1="420.0" y1="186.1" x2="530.0" y2="84.1" stroke="#141416" stroke-width="40" stroke-linecap="round"/><circle cx="529.6" cy="54.1" r="19" fill="#141416"/><circle cx="530.0" cy="88.1" r="13" fill="#fff" stroke="#141416" stroke-width="5"/><line x1="420.0" y1="186.1" x2="420.0" y2="91.1" stroke="#B8B8C0" stroke-width="2" stroke-dasharray="4 4"/><path d="M420.0,124.1 A62,62 0 0 1 465.5,143.9" fill="none" stroke="#E02020" stroke-width="3"/><text x="392.0" y="116.1" font-family="Montserrat" font-size="20" font-weight="800" fill="#E02020" text-anchor="middle">47°</text><text x="530.0" y="336.0" font-family="Montserrat" font-size="17" font-weight="800" fill="#141416" text-anchor="middle">Fémur long</text><text x="180.0" y="362.0" font-family="Montserrat" font-size="14" font-weight="600" fill="#6B6B73" text-anchor="middle">buste plutôt droit · quadriceps</text><text x="530.0" y="362.0" font-family="Montserrat" font-size="14" font-weight="600" fill="#6B6B73" text-anchor="middle">buste penché · fessiers + lombaires</text></svg>