<svg xmlns="http://www.w3.org/2000/svg" viewBox="0 0 640 440" width="640" height="440" role="img" aria-label="Buste court, buste long"><rect width="640" height="440" rx="14" fill="#F2F2F4"/><text x="320" y="24" font-family="Arial, Helvetica, sans-serif" font-size="16" text-anchor="middle" font-weight="700" fill="#141416">Buste court, buste long</text><line x1="141.17" y1="360.51" x2="188.83" y2="360.51" stroke="#141416" stroke-width="5" stroke-linecap="round"/><line x1="150.7" y1="348.28" x2="150.7" y2="271.15" stroke="#141416" stroke-width="5.73" stroke-linecap="round"/><line x1="150.7" y1="271.15" x2="150.7" y2="194.33" stroke="#141416" stroke-width="5.73" stroke-linecap="round"/><line x1="150.7" y1="194.33" x2="150.7" y2="109.67" stroke="#141416" stroke-width="5.73" stroke-linecap="round"/><line x1="150.7" y1="109.67" x2="150.7" y2="167.99" stroke="#141416" stroke-width="5.73" stroke-linecap="round"/><line x1="150.7" y1="167.99" x2="150.7" y2="213.77" stroke="#141416" stroke-width="5.73" stroke-linecap="round"/><line x1="150.7" y1="109.67" x2="150.7" y2="93.37" stroke="#141416" stroke-width="5.73" stroke-linecap="round"/><circle cx="150.7" cy="348.28" r="3.55" fill="#141416"/><circle cx="150.7" cy="271.15" r="3.55" fill="#141416"/><circle cx="150.7" cy="194.33" r="3.55" fill="#141416"/><circle cx="150.7" cy="109.67" r="3.55" fill="#141416"/><circle cx="150.7" cy="167.99" r="3.55" fill="#141416"/><circle cx="150.7" cy="213.77" r="3.55" fill="#141416"/><circle cx="150.7" cy="93.37" r="3.55" fill="#141416"/><circle cx="150.7" cy="72.99" r="17.12" fill="none" stroke="#141416" stroke-width="4.01"/><line x1="150.7" y1="194.33" x2="128.7" y2="194.33" stroke="#9A9AA2" stroke-width="1" stroke-linecap="round" stroke-dasharray="2 3"/><line x1="150.7" y1="109.67" x2="128.7" y2="109.67" stroke="#9A9AA2" stroke-width="1" stroke-linecap="round" stroke-dasharray="2 3"/><line x1="128.7" y1="194.33" x2="128.7" y2="109.67" stroke="#E02020" stroke-width="1.4" stroke-linecap="round"/><circle cx="128.7" cy="194.33" r="2.6" fill="#E02020"/><circle cx="128.7" cy="109.67" r="2.6" fill="#E02020"/><text x="121.7" y="156" font-family="Arial, Helvetica, sans-serif" font-size="11" text-anchor="end" font-weight="700" fill="#E02020">tronc 47 cm</text><text x="165" y="394" font-family="Arial, Helvetica, sans-serif" font-size="13" text-anchor="middle" font-weight="700" fill="#141416">Buste court</text><line x1="451.17" y1="366" x2="498.83" y2="366" stroke="#141416" stroke-width="5" stroke-linecap="round"/><line x1="460.7" y1="353.77" x2="460.7" y2="276.64" stroke="#141416" stroke-width="5.73" stroke-linecap="round"/><line x1="460.7" y1="276.64" x2="460.7" y2="199.82" stroke="#141416" stroke-width="5.73" stroke-linecap="round"/><line x1="460.7" y1="199.82" x2="460.7" y2="104.19" stroke="#141416" stroke-width="5.73" stroke-linecap="round"/><line x1="460.7" y1="104.19" x2="460.7" y2="162.51" stroke="#141416" stroke-width="5.73" stroke-linecap="round"/><line x1="460.7" y1="162.51" x2="460.7" y2="208.28" stroke="#141416" stroke-width="5.73" stroke-linecap="round"/><line x1="460.7" y1="104.19" x2="460.7" y2="87.88" stroke="#141416" stroke-width="5.73" stroke-linecap="round"/><circle cx="460.7" cy="353.77" r="3.55" fill="#141416"/><circle cx="460.7" cy="276.64" r="3.55" fill="#141416"/><circle cx="460.7" cy="199.82" r="3.55" fill="#141416"/><circle cx="460.7" cy="104.19" r="3.55" fill="#141416"/><circle cx="460.7" cy="162.51" r="3.55" fill="#141416"/><circle cx="460.7" cy="208.28" r="3.55" fill="#141416"/><circle cx="460.7" cy="87.88" r="3.55" fill="#141416"/><circle cx="460.7" cy="67.5" r="17.12" fill="none" stroke="#141416" stroke-width="4.01"/><line x1="460.7" y1="199.82" x2="438.7" y2="199.82" stroke="#9A9AA2" stroke-width="1" stroke-linecap="round" stroke-dasharray="2 3"/><line x1="460.7" y1="104.19" x2="438.7" y2="104.19" stroke="#9A9AA2" stroke-width="1" stroke-linecap="round" stroke-dasharray="2 3"/><line x1="438.7" y1="199.82" x2="438.7" y2="104.19" stroke="#E02020" stroke-width="1.4" stroke-linecap="round"/><circle cx="438.7" cy="199.82" r="2.6" fill="#E02020"/><circle cx="438.7" cy="104.19" r="2.6" fill="#E02020"/><text x="431.7" y="156" font-family="Arial, Helvetica, sans-serif" font-size="11" text-anchor="end" font-weight="700" fill="#E02020">tronc 53 cm</text><text x="475" y="394" font-family="Arial, Helvetica, sans-serif" font-size="13" text-anchor="middle" font-weight="700" fill="#141416">Buste long</text><text x="320" y="416" font-family="Arial, Helvetica, sans-serif" font-size="11.5" text-anchor="middle" fill="#141416">À taille égale, la longueur du tronc change la façon de squatter et de soulever.</text></svg>