<svg xmlns="http://www.w3.org/2000/svg" viewBox="0 0 640 440" width="640" height="440" role="img" aria-label="Genoux en valgum"><rect width="640" height="440" rx="14" fill="#F2F2F4"/><text x="320" y="24" font-family="Arial, Helvetica, sans-serif" font-size="16" text-anchor="middle" font-weight="700" fill="#141416">Genoux en valgum</text><line x1="287.89" y1="46" x2="287.89" y2="340.79" stroke="#9A9AA2" stroke-width="1.2" stroke-linecap="round" stroke-dasharray="4 4"/><line x1="352.11" y1="46" x2="352.11" y2="340.79" stroke="#9A9AA2" stroke-width="1.2" stroke-linecap="round" stroke-dasharray="4 4"/><line x1="287.89" y1="46" x2="305.82" y2="192" stroke="#141416" stroke-width="7" stroke-linecap="round"/><line x1="305.82" y1="192" x2="287.82" y2="338.6" stroke="#141416" stroke-width="7" stroke-linecap="round"/><line x1="352.11" y1="46" x2="334.18" y2="192" stroke="#141416" stroke-width="7" stroke-linecap="round"/><line x1="334.18" y1="192" x2="352.18" y2="338.6" stroke="#141416" stroke-width="7" stroke-linecap="round"/><circle cx="287.89" cy="46" r="4.34" fill="#141416"/><circle cx="352.11" cy="46" r="4.34" fill="#141416"/><circle cx="305.82" cy="192" r="4.34" fill="#141416"/><circle cx="334.18" cy="192" r="4.34" fill="#141416"/><circle cx="287.82" cy="338.6" r="4.34" fill="#141416"/><circle cx="352.18" cy="338.6" r="4.34" fill="#141416"/><line x1="287.82" y1="338.6" x2="287.82" y2="320.6" stroke="#9A9AA2" stroke-width="1" stroke-linecap="round" stroke-dasharray="2 3"/><line x1="352.18" y1="338.6" x2="352.18" y2="320.6" stroke="#9A9AA2" stroke-width="1" stroke-linecap="round" stroke-dasharray="2 3"/><line x1="287.82" y1="320.6" x2="352.18" y2="320.6" stroke="#E02020" stroke-width="1.4" stroke-linecap="round"/><circle cx="287.82" cy="320.6" r="2.6" fill="#E02020"/><circle cx="352.18" cy="320.6" r="2.6" fill="#E02020"/><text x="320" y="312.6" font-family="Arial, Helvetica, sans-serif" font-size="11" text-anchor="middle" font-weight="700" fill="#E02020">chevilles : 19 cm</text><text x="320" y="416" font-family="Arial, Helvetica, sans-serif" font-size="11.5" text-anchor="middle" fill="#141416">Les genoux se rapprochent quand les chevilles restent écartées.</text></svg>