<svg xmlns="http://www.w3.org/2000/svg" viewBox="0 0 640 440" width="640" height="440" role="img" aria-label="Squat favorable, squat défavorable"><rect width="640" height="440" rx="14" fill="#F2F2F4"/><text x="320" y="24" font-family="Arial, Helvetica, sans-serif" font-size="16" text-anchor="middle" font-weight="700" fill="#141416">Squat favorable, squat défavorable</text><line x1="146.32" y1="366" x2="215.73" y2="366" stroke="#141416" stroke-width="5" stroke-linecap="round"/><circle cx="181.03" cy="129.05" r="5.74" fill="#E02020"/><line x1="181.03" y1="366" x2="181.03" y2="108.17" stroke="#9A9AA2" stroke-width="1.2" stroke-linecap="round" stroke-dasharray="4 4"/><line x1="160.21" y1="348.19" x2="216.37" y2="250.92" stroke="#141416" stroke-width="7" stroke-linecap="round"/><line x1="216.37" y1="250.92" x2="113.63" y2="250.92" stroke="#141416" stroke-width="7" stroke-linecap="round"/><line x1="113.63" y1="250.92" x2="181.03" y2="129.05" stroke="#141416" stroke-width="7" stroke-linecap="round"/><line x1="181.03" y1="129.05" x2="203.1" y2="211.06" stroke="#141416" stroke-width="7" stroke-linecap="round"/><line x1="203.1" y1="211.06" x2="196.68" y2="144.7" stroke="#141416" stroke-width="7" stroke-linecap="round"/><line x1="181.03" y1="129.05" x2="188.11" y2="106.39" stroke="#141416" stroke-width="7" stroke-linecap="round"/><circle cx="160.21" cy="348.19" r="4.34" fill="#141416"/><circle cx="216.37" cy="250.92" r="4.34" fill="#141416"/><circle cx="113.63" cy="250.92" r="4.34" fill="#141416"/><circle cx="181.03" cy="129.05" r="4.34" fill="#141416"/><circle cx="188.11" cy="106.39" r="4.34" fill="#141416"/><circle cx="194.07" cy="77.31" r="24.93" fill="none" stroke="#141416" stroke-width="4.9"/><circle cx="203.1" cy="211.06" r="4.34" fill="#141416"/><circle cx="196.68" cy="144.7" r="4.34" fill="#141416"/><text x="165" y="394" font-family="Arial, Helvetica, sans-serif" font-size="13" text-anchor="middle" font-weight="700" fill="#141416">Favorable</text><line x1="466.6" y1="347.04" x2="536" y2="347.04" stroke="#141416" stroke-width="5" stroke-linecap="round"/><circle cx="501.3" cy="145.56" r="5.74" fill="#E02020"/><line x1="501.3" y1="347.04" x2="501.3" y2="124.69" stroke="#9A9AA2" stroke-width="1.2" stroke-linecap="round" stroke-dasharray="4 4"/><line x1="480.48" y1="329.23" x2="536.64" y2="231.96" stroke="#141416" stroke-width="7" stroke-linecap="round"/><line x1="536.64" y1="231.96" x2="413.36" y2="231.96" stroke="#141416" stroke-width="7" stroke-linecap="round"/><line x1="413.36" y1="231.96" x2="501.3" y2="145.56" stroke="#141416" stroke-width="7" stroke-linecap="round"/><line x1="501.3" y1="145.56" x2="523.37" y2="227.57" stroke="#141416" stroke-width="7" stroke-linecap="round"/><line x1="523.37" y1="227.57" x2="516.96" y2="161.21" stroke="#141416" stroke-width="7" stroke-linecap="round"/><line x1="501.3" y1="145.56" x2="512.19" y2="124.46" stroke="#141416" stroke-width="7" stroke-linecap="round"/><circle cx="480.48" cy="329.23" r="4.34" fill="#141416"/><circle cx="536.64" cy="231.96" r="4.34" fill="#141416"/><circle cx="413.36" cy="231.96" r="4.34" fill="#141416"/><circle cx="501.3" cy="145.56" r="4.34" fill="#141416"/><circle cx="512.19" cy="124.46" r="4.34" fill="#141416"/><circle cx="521.46" cy="96.27" r="24.93" fill="none" stroke="#141416" stroke-width="4.9"/><circle cx="523.37" cy="227.57" r="4.34" fill="#141416"/><circle cx="516.96" cy="161.21" r="4.34" fill="#141416"/><text x="475" y="394" font-family="Arial, Helvetica, sans-serif" font-size="13" text-anchor="middle" font-weight="700" fill="#141416">Défavorable</text><text x="320" y="416" font-family="Arial, Helvetica, sans-serif" font-size="11.5" text-anchor="middle" fill="#141416">Fémur court et tronc long : buste droit. Fémur long et tronc court : buste penché, plus de</text><text x="320" y="431" font-family="Arial, Helvetica, sans-serif" font-size="11.5" text-anchor="middle" fill="#141416">travail pour la hanche et le dos.</text></svg>